<?xml version="1.0" standalone="no"?><!DOCTYPE svg PUBLIC "-//W3C//DTD SVG 1.1//EN" "http://www.w3.org/Graphics/SVG/1.1/DTD/svg11.dtd"><svg t="1582855758392" class="icon" viewBox="0 0 1024 1024" version="1.1" xmlns="http://www.w3.org/2000/svg" p-id="1875" xmlns:xlink="http://www.w3.org/1999/xlink" width="200" height="200"><defs><style type="text/css"></style></defs><path d="M853.32992 102.4H569.58976c-18.76992 0-45.0048 10.87488-58.2656 24.12544L122.3168 515.5328c-26.56256 26.53184-26.56256 70.03136 0 96.53248l289.64864 289.6384c26.50112 26.53184 69.95968 26.53184 96.50176-0.03072l389.00736-388.94592C910.72512 499.47648 921.6 473.20064 921.6 454.47168V170.67008C921.6 133.13024 890.86976 102.4 853.32992 102.4zM716.78976 375.47008A68.29056 68.29056 0 0 1 648.51968 307.2c0-37.7344 30.5664-68.27008 68.27008-68.27008a68.25984 68.25984 0 1 1 0 136.54016z" p-id="1876"></path></svg>